<svg xmlns="http://www.w3.org/2000/svg" width="138" height="24" fill="none" class="desktop-header__logo h-6 w-auto"><path fill="currentColor" d="M28.893 24h23.53l-.077-6.662L36.71 19.05 36.734 0h-7.922l.081 24ZM119.787 24h7.925l-.062-18.071h9.63L137.261 0h-27.148l.019 5.929h9.595l.06 18.071ZM103.302 0h-8.871L82.454 24h8.199l1.794-3.871 12.08-1.689 2.61 5.56h8.302L103.302 0Zm-8.334 14.66 3.867-8.414 3.448 7.387-7.315 1.026Z" class="header-svg-path"/><path fill="currentColor" d="M81.169 18.386h-18.23l-.011-2.621 15.379-2.148-.017-5.116-15.379 2.147-.016-5.034H81.17V0H55.125l.04 11.732-2.903.405.02 5.116 2.9-.405.024 7.152h25.963v-5.614ZM7.717 15.765l15.305-2.14V8.506L7.698 10.648 7.68 5.614h18.401V0H0v24h26.082v-5.614H7.725l-.008-2.621Z" class="header-svg-path"/></svg>